<svg width="60" height="80" viewBox="0 0 60 80" fill="none" xmlns="http://www.w3.org/2000/svg">
<rect width="60" height="80" fill="white"/>
<path d="M34.8421 48.5789C34.8421 46.9458 35.4909 45.3795 36.6457 44.2247C37.8005 43.0698 39.3668 42.4211 41 42.4211C42.6332 42.4211 44.1995 43.0698 45.3543 44.2247C46.5091 45.3795 47.1579 46.9458 47.1579 48.5789C47.1579 49.3747 47.7832 50 48.5789 50C49.3747 50 50 49.3747 50 48.5789V47.1579H52.8421V48.5789C52.8421 49.7096 52.393 50.794 51.5935 51.5935C50.794 52.393 49.7096 52.8421 48.5789 52.8421C47.4483 52.8421 46.3639 52.393 45.5644 51.5935C44.7649 50.794 44.3158 49.7096 44.3158 48.5789C44.3158 47.6995 43.9664 46.8562 43.3446 46.2343C42.7228 45.6125 41.8794 45.2632 41 45.2632C40.1206 45.2632 39.2772 45.6125 38.6554 46.2343C38.0336 46.8562 37.6842 47.6995 37.6842 48.5789H40.0526V51.0232C45.5284 52.6526 49.5263 57.7305 49.5263 63.7368C49.5263 67.2545 48.129 70.628 45.6416 73.1153C43.1543 75.6026 39.7808 77 36.2632 77C32.7455 77 29.372 75.6026 26.8847 73.1153C24.3974 70.628 23 67.2545 23 63.7368C23 57.7305 26.9979 52.6526 32.4737 51.0232V48.5789H34.8421ZM55.2105 48.5789H59V50.4737H55.2105V48.5789ZM49.5263 44.7895V41H51.4211V44.7895H49.5263ZM53.1453 45.5095L55.8358 42.8189L57.1811 44.1642L54.4905 46.8547L53.1453 45.5095V45.5095Z" fill="#313131"/>
<path d="M45 27L18 44.3205L18 9.67949L45 27Z" fill="#DC2626"/>
<rect x="8" y="5" width="7" height="72" fill="#DC2626"/>
</svg>
